{
  "accessors": [
    {
      "bufferView": 2,
      "componentType": 5126,
      "count": 65532,
      "max": [
        0.13523800671100616,
        0.1240219995379448,
        0.24540899693965912
      ],
      "min": [
        -0.13986000418663025,
        -0.11187899857759476,
        -0.23505499958992004
      ],
      "type": "VEC3"
    },
    {
      "bufferView": 2,
      "byteOffset": 786384,
      "componentType": 5126,
      "count": 65532,
      "max": [
        0.9999853372573853,
        0.9999942779541016,
        0.9654622673988342
      ],
      "min": [
        -0.9999834299087524,
        -0.9999485015869141,
        -0.9999994039535522
      ],
      "type": "VEC3"
    },
    {
      "bufferView": 3,
      "componentType": 5126,
      "count": 65532,
      "max": [
        0.9998608827590942,
        0.999988317489624,
        0.9937151670455933,
        1.0
      ],
      "min": [
        -0.9966244697570801,
        -0.9997206330299377,
        -0.9995356798171997,
        -1.0
      ],
      "type": "VEC4"
    },
    {
      "bufferView": 1,
      "componentType": 5126,
      "count": 65532,
      "max": [
        1.0,
        0.9771080017089844
      ],
      "min": [
        0.0029070000164210796,
        0.0
      ],
      "type": "VEC2"
    },
    {
      "bufferView": 0,
      "componentType": 5125,
      "count": 333807,
      "type": "SCALAR"
    },
    {
      "bufferView": 2,
      "byteOffset": 1572768,
      "componentType": 5126,
      "count": 65532,
      "max": [
        0.13570399582386017,
        0.1261889934539795,
        0.2601349949836731
      ],
      "min": [
        -0.14461199939250946,
        -0.1240530014038086,
        -0.23470300436019897
      ],
      "type": "VEC3"
    },
    {
      "bufferView": 2,
      "byteOffset": 2359152,
      "componentType": 5126,
      "count": 65532,
      "max": [
        0.9999717473983765,
        0.9999923706054688,
        0.9999591112136841
      ],
      "min": [
        -0.9999985694885254,
        -0.9999841451644897,
        -0.9999815225601196
      ],
      "type": "VEC3"
    },
    {
      "bufferView": 3,
      "byteOffset": 1048512,
      "componentType": 5126,
      "count": 65532,
      "max": [
        0.9998155832290649,
        0.9999939203262329,
        0.9990443587303162,
        1.0
      ],
      "min": [
        -0.9999513030052185,
        -0.9999754428863525,
        -0.999854564666748,
        -1.0
      ],
      "type": "VEC4"
    },
    {
      "bufferView": 1,
      "byteOffset": 524256,
      "componentType": 5126,
      "count": 65532,
      "max": [
        1.0,
        0.9800329804420471
      ],
      "min": [
        0.0,
        0.0007309999782592058
      ],
      "type": "VEC2"
    },
    {
      "bufferView": 0,
      "byteOffset": 1335228,
      "componentType": 5125,
      "count": 318186,
      "type": "SCALAR"
    },
    {
      "bufferView": 2,
      "byteOffset": 3145536,
      "componentType": 5126,
      "count": 43187,
      "max": [
        0.13462600111961365,
        0.12628400325775146,
        0.26224198937416077
      ],
      "min": [
        -0.14429700374603271,
        -0.12445800006389618,
        -0.23491999506950378
      ],
      "type": "VEC3"
    },
    {
      "bufferView": 2,
      "byteOffset": 3663780,
      "componentType": 5126,
      "count": 43187,
      "max": [
        0.99969881772995,
        0.9999669790267944,
        0.9999860525131226
      ],
      "min": [
        -0.9998965263366699,
        -0.9999744892120361,
        -0.9999803304672241
      ],
      "type": "VEC3"
    },
    {
      "bufferView": 3,
      "byteOffset": 2097024,
      "componentType": 5126,
      "count": 43187,
      "max": [
        0.99980229139328,
        0.9999929070472717,
        0.9992278218269348,
        1.0
      ],
      "min": [
        -0.9999513030052185,
        -0.9999980330467224,
        -0.9997644424438477,
        -1.0
      ],
      "type": "VEC4"
    },
    {
      "bufferView": 1,
      "byteOffset": 1048512,
      "componentType": 5126,
      "count": 43187,
      "max": [
        0.9967269897460938,
        0.9803419709205627
      ],
      "min": [
        0.0,
        0.0
      ],
      "type": "VEC2"
    },
    {
      "bufferView": 0,
      "byteOffset": 2607972,
      "componentType": 5125,
      "count": 168525,
      "type": "SCALAR"
    }
  ],
  "asset": {
    "extras": {
      "author": "Bonn Center for Digital Humanities (https://sketchfab.com/bcdh)",
      "license": "CC-BY-NC-ND-4.0 (http://creativecommons.org/licenses/by-nc-nd/4.0/)",
      "source": "https://sketchfab.com/3d-models/potrait-of-philosopher-sokrates-8bd5edeaa32943fba175504ea666bf69",
      "title": "Potrait of philosopher Sokrates"
    },
    "generator": "Sketchfab-16.59.0",
    "version": "2.0"
  },
  "bufferViews": [
    {
      "buffer": 0,
      "byteLength": 3282072,
      "name": "floatBufferViews",
      "target": 34963
    },
    {
      "buffer": 0,
      "byteLength": 1394008,
      "byteOffset": 3282072,
      "byteStride": 8,
      "name": "floatBufferViews",
      "target": 34962
    },
    {
      "buffer": 0,
      "byteLength": 4182024,
      "byteOffset": 4676080,
      "byteStride": 12,
      "name": "floatBufferViews",
      "target": 34962
    },
    {
      "buffer": 0,
      "byteLength": 2788016,
      "byteOffset": 8858104,
      "byteStride": 16,
      "name": "floatBufferViews",
      "target": 34962
    }
  ],
  "buffers": [
    {
      "byteLength": 11646120,
      "uri": "scene.bin"
    }
  ],
  "images": [
    {
      "uri": "textures/material_0_baseColor.jpeg"
    },
    {
      "uri": "textures/material_0_metallicRoughness.png"
    },
    {
      "uri": "textures/material_0_normal.png"
    }
  ],
  "materials": [
    {
      "doubleSided": true,
      "name": "material_0",
      "normalTexture": {
        "index": 2
      },
      "occlusionTexture": {
        "index": 1
      },
      "pbrMetallicRoughness": {
        "baseColorTexture": {
          "index": 0
        },
        "metallicFactor": 0.0,
        "metallicRoughnessTexture": {
          "index": 1
        }
      }
    }
  ],
  "meshes": [
    {
      "name": "Object_0",
      "primitives": [
        {
          "attributes": {
            "NORMAL": 1,
            "POSITION": 0,
            "TANGENT": 2,
            "TEXCOORD_0": 3
          },
          "indices": 4,
          "material": 0,
          "mode": 4
        }
      ]
    },
    {
      "name": "Object_1",
      "primitives": [
        {
          "attributes": {
            "NORMAL": 6,
            "POSITION": 5,
            "TANGENT": 7,
            "TEXCOORD_0": 8
          },
          "indices": 9,
          "material": 0,
          "mode": 4
        }
      ]
    },
    {
      "name": "Object_2",
      "primitives": [
        {
          "attributes": {
            "NORMAL": 11,
            "POSITION": 10,
            "TANGENT": 12,
            "TEXCOORD_0": 13
          },
          "indices": 14,
          "material": 0,
          "mode": 4
        }
      ]
    }
  ],
  "nodes": [
    {
      "children": [
        1
      ],
      "matrix": [
        1.0,
        0.0,
        0.0,
        0.0,
        0.0,
        2.220446049250313e-16,
        -1.0,
        0.0,
        0.0,
        1.0,
        2.220446049250313e-16,
        0.0,
        0.0,
        0.0,
        0.0,
        1.0
      ],
      "name": "Sketchfab_model"
    },
    {
      "children": [
        2,
        3,
        4
      ],
      "name": "Sokrates_812_194i_low_poly_uv_ausgerichtet.obj.cleaner.materialmerger.gles"
    },
    {
      "mesh": 0,
      "name": "Object_2"
    },
    {
      "mesh": 1,
      "name": "Object_3"
    },
    {
      "mesh": 2,
      "name": "Object_4"
    }
  ],
  "samplers": [
    {
      "magFilter": 9729,
      "minFilter": 9987,
      "wrapS": 10497,
      "wrapT": 10497
    }
  ],
  "scene": 0,
  "scenes": [
    {
      "name": "Sketchfab_Scene",
      "nodes": [
        0
      ]
    }
  ],
  "textures": [
    {
      "sampler": 0,
      "source": 0
    },
    {
      "sampler": 0,
      "source": 1
    },
    {
      "sampler": 0,
      "source": 2
    }
  ]
}
