{
  "accessors": [
    {
      "bufferView": 2,
      "componentType": 5126,
      "count": 65532,
      "max": [
        0.6439399123191833,
        1.044055461883545,
        1.0968073606491089
      ],
      "min": [
        -0.7249777913093567,
        -0.25339818000793457,
        -1.0829888582229614
      ],
      "type": "VEC3"
    },
    {
      "bufferView": 2,
      "byteOffset": 786384,
      "componentType": 5126,
      "count": 65532,
      "max": [
        0.9999726414680481,
        0.9999991655349731,
        0.9999880194664001
      ],
      "min": [
        -0.9999998807907104,
        -0.9998903870582581,
        -0.999915361404419
      ],
      "type": "VEC3"
    },
    {
      "bufferView": 1,
      "componentType": 5126,
      "count": 65532,
      "max": [
        0.9977551102638245,
        0.7423940300941467
      ],
      "min": [
        0.032841842621564865,
        0.008743762969970703
      ],
      "type": "VEC2"
    },
    {
      "bufferView": 0,
      "componentType": 5125,
      "count": 346650,
      "type": "SCALAR"
    },
    {
      "bufferView": 2,
      "byteOffset": 1572768,
      "componentType": 5126,
      "count": 65532,
      "max": [
        0.4862520694732666,
        1.043160319328308,
        1.0330660343170166
      ],
      "min": [
        -0.5156795978546143,
        -0.07385236024856567,
        -1.0880248546600342
      ],
      "type": "VEC3"
    },
    {
      "bufferView": 2,
      "byteOffset": 2359152,
      "componentType": 5126,
      "count": 65532,
      "max": [
        0.9999952912330627,
        0.9999993443489075,
        0.9998621940612793
      ],
      "min": [
        -0.9999675154685974,
        -0.9964591860771179,
        -0.9999789595603943
      ],
      "type": "VEC3"
    },
    {
      "bufferView": 1,
      "byteOffset": 524256,
      "componentType": 5126,
      "count": 65532,
      "max": [
        0.8263245224952698,
        0.5475326776504517
      ],
      "min": [
        0.0882682278752327,
        0.008427143096923828
      ],
      "type": "VEC2"
    },
    {
      "bufferView": 0,
      "byteOffset": 1386600,
      "componentType": 5125,
      "count": 368439,
      "type": "SCALAR"
    },
    {
      "bufferView": 2,
      "byteOffset": 3145536,
      "componentType": 5126,
      "count": 65532,
      "max": [
        0.3200782239437103,
        0.8352401852607727,
        1.0509443283081055
      ],
      "min": [
        -0.7281489372253418,
        -0.15895181894302368,
        -0.9041650295257568
      ],
      "type": "VEC3"
    },
    {
      "bufferView": 2,
      "byteOffset": 3931920,
      "componentType": 5126,
      "count": 65532,
      "max": [
        0.9999430179595947,
        0.9999991059303284,
        0.9998892545700073
      ],
      "min": [
        -0.9999966621398926,
        -0.9896305799484253,
        -0.9999078512191772
      ],
      "type": "VEC3"
    },
    {
      "bufferView": 1,
      "byteOffset": 1048512,
      "componentType": 5126,
      "count": 65532,
      "max": [
        0.5851160287857056,
        0.35409027338027954
      ],
      "min": [
        0.002146318554878235,
        0.008379817008972168
      ],
      "type": "VEC2"
    },
    {
      "bufferView": 0,
      "byteOffset": 2860356,
      "componentType": 5125,
      "count": 366426,
      "type": "SCALAR"
    },
    {
      "bufferView": 2,
      "byteOffset": 4718304,
      "componentType": 5126,
      "count": 65532,
      "max": [
        0.4994480013847351,
        0.578370213508606,
        1.0560386180877686
      ],
      "min": [
        -0.7285093069076538,
        -0.25339818000793457,
        -1.0795835256576538
      ],
      "type": "VEC3"
    },
    {
      "bufferView": 2,
      "byteOffset": 5504688,
      "componentType": 5126,
      "count": 65532,
      "max": [
        0.9999877214431763,
        0.9999998211860657,
        0.9999877214431763
      ],
      "min": [
        -0.9999998211860657,
        -0.9376548528671265,
        -0.9999658465385437
      ],
      "type": "VEC3"
    },
    {
      "bufferView": 1,
      "byteOffset": 1572768,
      "componentType": 5126,
      "count": 65532,
      "max": [
        0.9741662740707397,
        0.354067862033844
      ],
      "min": [
        0.013832271099090576,
        0.008361518383026123
      ],
      "type": "VEC2"
    },
    {
      "bufferView": 0,
      "byteOffset": 4326060,
      "componentType": 5125,
      "count": 359319,
      "type": "SCALAR"
    },
    {
      "bufferView": 2,
      "byteOffset": 6291072,
      "componentType": 5126,
      "count": 65532,
      "max": [
        0.6263278722763062,
        1.0438344478607178,
        0.8921403884887695
      ],
      "min": [
        -0.41456639766693115,
        -0.004751384723931551,
        -1.0831187963485718
      ],
      "type": "VEC3"
    },
    {
      "bufferView": 2,
      "byteOffset": 7077456,
      "componentType": 5126,
      "count": 65532,
      "max": [
        0.9999451637268066,
        0.9999953508377075,
        0.9999755024909973
      ],
      "min": [
        -0.9999998211860657,
        -0.9941981434822083,
        -0.9999858140945435
      ],
      "type": "VEC3"
    },
    {
      "bufferView": 1,
      "byteOffset": 2097024,
      "componentType": 5126,
      "count": 65532,
      "max": [
        0.9760547876358032,
        0.7430229783058167
      ],
      "min": [
        0.002089809626340866,
        0.008678972721099854
      ],
      "type": "VEC2"
    },
    {
      "bufferView": 0,
      "byteOffset": 5763336,
      "componentType": 5125,
      "count": 374019,
      "type": "SCALAR"
    },
    {
      "bufferView": 2,
      "byteOffset": 7863840,
      "componentType": 5126,
      "count": 59778,
      "max": [
        0.6383253931999207,
        1.0438344478607178,
        0.6852949261665344
      ],
      "min": [
        -0.5761931538581848,
        -0.0091666579246521,
        -0.9726958274841309
      ],
      "type": "VEC3"
    },
    {
      "bufferView": 2,
      "byteOffset": 8581176,
      "componentType": 5126,
      "count": 59778,
      "max": [
        0.9999880790710449,
        1.0,
        0.9986141324043274
      ],
      "min": [
        -0.9999855160713196,
        -0.998742938041687,
        -0.9998311400413513
      ],
      "type": "VEC3"
    },
    {
      "bufferView": 1,
      "byteOffset": 2621280,
      "componentType": 5126,
      "count": 59778,
      "max": [
        0.9973768591880798,
        0.5470064282417297
      ],
      "min": [
        0.16312503814697266,
        0.00853872299194336
      ],
      "type": "VEC2"
    },
    {
      "bufferView": 0,
      "byteOffset": 7259412,
      "componentType": 5125,
      "count": 336882,
      "type": "SCALAR"
    }
  ],
  "asset": {
    "extras": {
      "author": "Artur Coelho (https://sketchfab.com/coelhoelectrico)",
      "license": "CC-BY-4.0 (http://creativecommons.org/licenses/by/4.0/)",
      "source": "https://sketchfab.com/3d-models/cleopatra-941fc6fe136745d0b8d7a0c198a74b37",
      "title": "Cleópatra"
    },
    "generator": "Sketchfab-14.55.0",
    "version": "2.0"
  },
  "bufferViews": [
    {
      "buffer": 0,
      "byteLength": 8606940,
      "name": "floatBufferViews",
      "target": 34963
    },
    {
      "buffer": 0,
      "byteLength": 3099504,
      "byteOffset": 8606940,
      "byteStride": 8,
      "name": "floatBufferViews",
      "target": 34962
    },
    {
      "buffer": 0,
      "byteLength": 9298512,
      "byteOffset": 11706444,
      "byteStride": 12,
      "name": "floatBufferViews",
      "target": 34962
    }
  ],
  "buffers": [
    {
      "byteLength": 21004956,
      "uri": "scene.bin"
    }
  ],
  "extensionsUsed": [
    "KHR_materials_unlit"
  ],
  "images": [
    {
      "uri": "textures/main_baseColor.jpeg"
    }
  ],
  "materials": [
    {
      "extensions": {
        "KHR_materials_unlit": {}
      },
      "name": "main",
      "pbrMetallicRoughness": {
        "baseColorTexture": {
          "index": 0
        },
        "metallicFactor": 0.0
      }
    }
  ],
  "meshes": [
    {
      "name": "Object_0",
      "primitives": [
        {
          "attributes": {
            "NORMAL": 1,
            "POSITION": 0,
            "TEXCOORD_0": 2
          },
          "indices": 3,
          "material": 0,
          "mode": 4
        }
      ]
    },
    {
      "name": "Object_1",
      "primitives": [
        {
          "attributes": {
            "NORMAL": 5,
            "POSITION": 4,
            "TEXCOORD_0": 6
          },
          "indices": 7,
          "material": 0,
          "mode": 4
        }
      ]
    },
    {
      "name": "Object_2",
      "primitives": [
        {
          "attributes": {
            "NORMAL": 9,
            "POSITION": 8,
            "TEXCOORD_0": 10
          },
          "indices": 11,
          "material": 0,
          "mode": 4
        }
      ]
    },
    {
      "name": "Object_3",
      "primitives": [
        {
          "attributes": {
            "NORMAL": 13,
            "POSITION": 12,
            "TEXCOORD_0": 14
          },
          "indices": 15,
          "material": 0,
          "mode": 4
        }
      ]
    },
    {
      "name": "Object_4",
      "primitives": [
        {
          "attributes": {
            "NORMAL": 17,
            "POSITION": 16,
            "TEXCOORD_0": 18
          },
          "indices": 19,
          "material": 0,
          "mode": 4
        }
      ]
    },
    {
      "name": "Object_5",
      "primitives": [
        {
          "attributes": {
            "NORMAL": 21,
            "POSITION": 20,
            "TEXCOORD_0": 22
          },
          "indices": 23,
          "material": 0,
          "mode": 4
        }
      ]
    }
  ],
  "nodes": [
    {
      "children": [
        1
      ],
      "matrix": [
        1.0,
        0.0,
        0.0,
        0.0,
        0.0,
        2.220446049250313e-16,
        -1.0,
        0.0,
        0.0,
        1.0,
        2.220446049250313e-16,
        0.0,
        0.0,
        0.0,
        0.0,
        1.0
      ],
      "name": "Sketchfab_model"
    },
    {
      "children": [
        2
      ],
      "name": "root"
    },
    {
      "children": [
        3
      ],
      "matrix": [
        1.0,
        0.0,
        0.0,
        0.0,
        0.0,
        2.220446049250313e-16,
        1.0,
        0.0,
        0.0,
        -1.0,
        2.220446049250313e-16,
        0.0,
        0.0,
        0.0,
        0.0,
        1.0
      ],
      "name": "GLTF_SceneRootNode"
    },
    {
      "children": [
        4
      ],
      "name": "root_0"
    },
    {
      "children": [
        5,
        6,
        7,
        8,
        9,
        10
      ],
      "name": "mesh_1"
    },
    {
      "mesh": 0,
      "name": "Object_5"
    },
    {
      "mesh": 1,
      "name": "Object_6"
    },
    {
      "mesh": 2,
      "name": "Object_7"
    },
    {
      "mesh": 3,
      "name": "Object_8"
    },
    {
      "mesh": 4,
      "name": "Object_9"
    },
    {
      "mesh": 5,
      "name": "Object_10"
    }
  ],
  "samplers": [
    {
      "magFilter": 9729,
      "minFilter": 9729,
      "wrapS": 10497,
      "wrapT": 10497
    }
  ],
  "scene": 0,
  "scenes": [
    {
      "name": "Sketchfab_Scene",
      "nodes": [
        0
      ]
    }
  ],
  "textures": [
    {
      "sampler": 0,
      "source": 0
    }
  ]
}
