{
  "accessors": [
    {
      "bufferView": 2,
      "componentType": 5126,
      "count": 16272,
      "max": [
        12.422900199890137,
        9.418880462646484,
        2.3924379348754883
      ],
      "min": [
        -11.134889602661133,
        -8.593328475952148,
        -0.029657000675797462
      ],
      "type": "VEC3"
    },
    {
      "bufferView": 2,
      "byteOffset": 195264,
      "componentType": 5126,
      "count": 16272,
      "max": [
        0.998873233795166,
        0.999899685382843,
        1.0
      ],
      "min": [
        -0.9996228218078613,
        -0.9999750256538391,
        -1.0
      ],
      "type": "VEC3"
    },
    {
      "bufferView": 1,
      "componentType": 5126,
      "count": 16272,
      "max": [
        0.629492998123169,
        0.9487810134887695
      ],
      "min": [
        0.08004800230264664,
        0.05791400000452995
      ],
      "type": "VEC2"
    },
    {
      "bufferView": 0,
      "componentType": 5125,
      "count": 52632,
      "type": "SCALAR"
    },
    {
      "bufferView": 2,
      "byteOffset": 390528,
      "componentType": 5126,
      "count": 17547,
      "max": [
        13.971599578857422,
        10.005200386047363,
        4.1149001121521
      ],
      "min": [
        -12.418569564819336,
        -10.259149551391602,
        -0.1072470024228096
      ],
      "type": "VEC3"
    },
    {
      "bufferView": 2,
      "byteOffset": 601092,
      "componentType": 5126,
      "count": 17547,
      "max": [
        1.0,
        0.9997290968894958,
        1.0
      ],
      "min": [
        -0.9992551803588867,
        -0.9997289180755615,
        -1.0
      ],
      "type": "VEC3"
    },
    {
      "bufferView": 1,
      "byteOffset": 130176,
      "componentType": 5126,
      "count": 17547,
      "max": [
        0.9269289970397949,
        0.9694460034370422
      ],
      "min": [
        0.05060900002717972,
        0.05791400000452995
      ],
      "type": "VEC2"
    },
    {
      "bufferView": 0,
      "byteOffset": 210528,
      "componentType": 5125,
      "count": 43803,
      "type": "SCALAR"
    },
    {
      "bufferView": 2,
      "byteOffset": 811656,
      "componentType": 5126,
      "count": 9591,
      "max": [
        13.494339942932129,
        9.65140438079834,
        4.958086013793945
      ],
      "min": [
        -11.466090202331543,
        -9.698846817016602,
        -0.01684200018644333
      ],
      "type": "VEC3"
    },
    {
      "bufferView": 2,
      "byteOffset": 926748,
      "componentType": 5126,
      "count": 9591,
      "max": [
        0.9999414086341858,
        0.9998804926872253,
        1.0
      ],
      "min": [
        -1.0,
        -1.0,
        -1.0
      ],
      "type": "VEC3"
    },
    {
      "bufferView": 1,
      "byteOffset": 270552,
      "componentType": 5126,
      "count": 9591,
      "max": [
        0.2942729890346527,
        0.9694460034370422
      ],
      "min": [
        0.07535699754953384,
        0.2759760022163391
      ],
      "type": "VEC2"
    },
    {
      "bufferView": 0,
      "byteOffset": 385740,
      "componentType": 5125,
      "count": 24777,
      "type": "SCALAR"
    }
  ],
  "asset": {
    "extras": {
      "author": "Digital screen official (https://sketchfab.com/ck212575)",
      "license": "SKETCHFAB Standard (https://sketchfab.com/licenses)",
      "source": "https://sketchfab.com/3d-models/low-poly-forest-4-e7114cfd53a341459db4e66fd6a280c8",
      "title": "low poly forest 4"
    },
    "generator": "Sketchfab-16.14.0",
    "version": "2.0"
  },
  "bufferViews": [
    {
      "buffer": 0,
      "byteLength": 484848,
      "name": "floatBufferViews",
      "target": 34963
    },
    {
      "buffer": 0,
      "byteLength": 347280,
      "byteOffset": 484848,
      "byteStride": 8,
      "name": "floatBufferViews",
      "target": 34962
    },
    {
      "buffer": 0,
      "byteLength": 1041840,
      "byteOffset": 832128,
      "byteStride": 12,
      "name": "floatBufferViews",
      "target": 34962
    }
  ],
  "buffers": [
    {
      "byteLength": 1873968,
      "uri": "scene.bin"
    }
  ],
  "extensionsUsed": [
    "KHR_materials_specular"
  ],
  "images": [
    {
      "uri": "textures/Material_baseColor.jpeg"
    }
  ],
  "materials": [
    {
      "doubleSided": true,
      "extensions": {
        "KHR_materials_specular": {
          "specularColorFactor": [
            1.0,
            1.0,
            1.0
          ],
          "specularFactor": 0.0
        }
      },
      "name": "Material",
      "pbrMetallicRoughness": {
        "baseColorTexture": {
          "index": 0
        },
        "metallicFactor": 0.0,
        "roughnessFactor": 0.6
      }
    }
  ],
  "meshes": [
    {
      "name": "Object_0",
      "primitives": [
        {
          "attributes": {
            "NORMAL": 1,
            "POSITION": 0,
            "TEXCOORD_0": 2
          },
          "indices": 3,
          "material": 0,
          "mode": 4
        }
      ]
    },
    {
      "name": "Object_1",
      "primitives": [
        {
          "attributes": {
            "NORMAL": 5,
            "POSITION": 4,
            "TEXCOORD_0": 6
          },
          "indices": 7,
          "material": 0,
          "mode": 4
        }
      ]
    },
    {
      "name": "Object_2",
      "primitives": [
        {
          "attributes": {
            "NORMAL": 9,
            "POSITION": 8,
            "TEXCOORD_0": 10
          },
          "indices": 11,
          "material": 0,
          "mode": 4
        }
      ]
    }
  ],
  "nodes": [
    {
      "children": [
        1
      ],
      "matrix": [
        1.0,
        0.0,
        0.0,
        0.0,
        0.0,
        2.220446049250313e-16,
        -1.0,
        0.0,
        0.0,
        1.0,
        2.220446049250313e-16,
        0.0,
        0.0,
        0.0,
        0.0,
        1.0
      ],
      "name": "Sketchfab_model"
    },
    {
      "children": [
        2,
        3,
        4
      ],
      "name": "low poly forest 4.obj.cleaner.materialmerger.gles"
    },
    {
      "mesh": 0,
      "name": "Object_2"
    },
    {
      "mesh": 1,
      "name": "Object_3"
    },
    {
      "mesh": 2,
      "name": "Object_4"
    }
  ],
  "samplers": [
    {
      "magFilter": 9729,
      "minFilter": 9987,
      "wrapS": 10497,
      "wrapT": 10497
    }
  ],
  "scene": 0,
  "scenes": [
    {
      "name": "Sketchfab_Scene",
      "nodes": [
        0
      ]
    }
  ],
  "textures": [
    {
      "sampler": 0,
      "source": 0
    }
  ]
}
